<svg id="Layer_1" xmlns="http://www.w3.org/2000/svg" xmlns:xlink="http://www.w3.org/1999/xlink" width="120" height="120"><style>.st0{fill-rule:evenodd;clip-rule:evenodd;fill:#d2e3fc}.st5{fill:none;stroke:#4285f4;stroke-width:1.6071;stroke-linecap:round}.st8{fill-rule:evenodd;clip-rule:evenodd;fill:#fff}</style><path id="background" class="st0" d="M0 120h120V0H0z"/><defs><path id="SVGID_1_" d="M0 0h120v120H0z"/></defs><clipPath id="SVGID_2_"><use xlink:href="#SVGID_1_" overflow="visible"/></clipPath><g id="Fill-182" clip-path="url(#SVGID_2_)"><path d="M60 113.6c-9.5 0-18.6-3-26.1-8.8A154.2 154.2 0 0 1-.4 68.6l-.1-.1v-69h121.1v69l-.1.1a158.3 158.3 0 0 1-34.3 36.2 42.9 42.9 0 0 1-26.2 8.8z" fill-rule="evenodd" clip-rule="evenodd" fill="#e7f1fd"/><path d="M120 0v68.3c-9.6 13.8-20.8 26-34.2 36.1a43 43 0 0 1-51.6 0A156.4 156.4 0 0 1 0 68.3V0h120m1.1-1.1H-1.1v69.7l.2.3c10 14.4 21.6 26.6 34.4 36.3a44.2 44.2 0 0 0 53 0 159.2 159.2 0 0 0 34.4-36.3l.2-.3V-1.1z" fill="#4585f1"/></g><path id="Fill-238" class="st0" d="M60 89.5c3.3 0 6.4.9 9 2.5 1 .6 2.2-.6 1.5-1.5a13.1 13.1 0 0 0-21 0c-.7.9.5 2.1 1.5 1.5 2.6-1.6 5.7-2.5 9-2.5"/><path d="M24.6 52.5l19.4-7c2.8-1 5.8-1.5 8.8-1.5h14.5c3 0 6 .5 8.8 1.5l19.4 7" fill="none" stroke="#4285f4" stroke-width="1.6" stroke-linecap="round" stroke-linejoin="round"/><path id="Stroke-122" class="st5" d="M95.4 55C84 69.1 85.5 76.6 60 76.6S36 69.1 24.6 55"/><path d="M95.3 53.4a298.6 298.6 0 0 0-70.7 0v1a56.4 56.4 0 0 0 35.5 11c12 0 23.9-2.6 35.2-11" fill-rule="evenodd" clip-rule="evenodd" fill="#2a2c33"/><defs><filter id="Adobe_OpacityMaskFilter" filterUnits="userSpaceOnUse" x="35.9" y="45" width="48.8" height="21.4"><feColorMatrix values="1 0 0 0 0 0 1 0 0 0 0 0 1 0 0 0 0 0 1 0"/></filter></defs><mask maskUnits="userSpaceOnUse" x="35.9" y="45" width="48.8" height="21.4" id="mask-2_2_"><g filter="url(#Adobe_OpacityMaskFilter)"><path id="path-1_2_" class="st8" d="M95.3 53.4a298.6 298.6 0 0 0-70.7 0v1a56.4 56.4 0 0 0 35.5 11c12 0 23.9-2.6 35.2-11"/></g></mask><path id="tounge" d="M84.6 55.7c0 5.9-10.9 10.7-24.4 10.7s-24.4-4.8-24.4-10.7S46.8 45 60.3 45s24.3 4.8 24.3 10.7" mask="url(#mask-2_2_)" fill-rule="evenodd" clip-rule="evenodd" fill="#90130e"/><defs><filter id="Adobe_OpacityMaskFilter_1_" filterUnits="userSpaceOnUse" x="27.3" y="56.3" width="65.5" height="11.8"><feColorMatrix values="1 0 0 0 0 0 1 0 0 0 0 0 1 0 0 0 0 0 1 0"/></filter></defs><mask maskUnits="userSpaceOnUse" x="27.3" y="56.3" width="65.5" height="11.8" id="teeth_lower_1_"><path class="st8" d="M95.3 53.4a298.6 298.6 0 0 0-70.7 0v1a56.4 56.4 0 0 0 35.5 11c12 0 23.9-2.6 35.2-11" filter="url(#Adobe_OpacityMaskFilter_1_)"/></mask><path id="teeth_lower" d="M60 59.8c-12.1 0-23.3-1.3-32.7-3.5 2.4 2.2 5.2 4 8.4 5.3l8.8 3.4c5 1.9 10.3 3 15.6 3.1 5.3-.1 10.6-1.2 15.6-3.1l8.8-3.4c3.1-1.2 5.9-3 8.4-5.3-9.6 2.2-20.8 3.5-32.9 3.5" mask="url(#teeth_lower_1_)" fill-rule="evenodd" clip-rule="evenodd" fill="#fff"/><defs><filter id="Adobe_OpacityMaskFilter_2_" filterUnits="userSpaceOnUse" x="26.6" y="45.3" width="66.8" height="12"><feColorMatrix values="1 0 0 0 0 0 1 0 0 0 0 0 1 0 0 0 0 0 1 0"/></filter></defs><mask maskUnits="userSpaceOnUse" x="26.6" y="45.3" width="66.8" height="12" id="mask-2_4_"><g filter="url(#Adobe_OpacityMaskFilter_2_)"><path id="path-1_4_" class="st8" d="M95.3 53.4a298.6 298.6 0 0 0-70.7 0v1a56.4 56.4 0 0 0 35.5 11c12 0 23.9-2.6 35.2-11"/></g></mask><path id="teeth_upper" d="M74.9 45.3H45l-18.5.5 4.2 6.9c7.8 2.9 18 4.6 29.2 4.6s21.4-1.7 29.2-4.6l4.2-6.9-18.4-.5z" mask="url(#mask-2_4_)" fill-rule="evenodd" clip-rule="evenodd" fill="#fff"/><path id="hole_stroke" d="M95.3 53.4a298.6 298.6 0 0 0-70.7 0v1a56.4 56.4 0 0 0 35.5 11c12 0 23.9-2.6 35.2-11" fill="none" stroke="#2a2c33" stroke-width="2.1" stroke-linecap="round"/><path id="nose" class="st5" d="M77.1 11.2l-9.6 9.6c-4.2 4.2-11 4.2-15.2 0l-9.6-9.6"/></svg>